<?xml version="1.0" encoding="UTF-8" standalone="no"?>
<!DOCTYPE svg PUBLIC "-//W3C//DTD SVG 1.1//EN"
 "http://www.w3.org/Graphics/SVG/1.1/DTD/svg11.dtd">
<!-- Generated by graphviz version 12.2.1 (20241206.2353)
 -->
<!-- Title: G Pages: 1 -->
<svg width="505pt" height="425pt"
 viewBox="0.00 0.00 505.38 425.00" xmlns="http://www.w3.org/2000/svg" xmlns:xlink="http://www.w3.org/1999/xlink">
<g id="graph0" class="graph" transform="scale(1 1) rotate(0) translate(4 421)">
<title>G</title>
<polygon fill="#f9f9f9" stroke="none" points="-4,4 -4,-421 501.38,-421 501.38,4 -4,4"/>
<g id="clust1" class="cluster">
<title>cluster_1</title>
<polygon fill="#5dade2" fill-opacity="0.125490" stroke="#5dade2" stroke-width="2" points="42.45,-8 42.45,-192 489.38,-192 489.38,-8 42.45,-8"/>
<text text-anchor="middle" x="265.91" y="-174.7" font-family="Arial" font-size="14.00">root</text>
</g>
<g id="clust2" class="cluster">
<title>cluster_legend</title>
<polygon fill="#f9f9f9" stroke="gray" stroke-width="2" stroke-dasharray="5,2" points="8,-200 8,-409 462.43,-409 462.43,-200 8,-200"/>
<text text-anchor="middle" x="235.22" y="-391.7" font-family="Arial" font-size="14.00">Legend</text>
</g>
<!-- n0 -->
<g id="node1" class="node">
<title>n0</title>
<polygon fill="#5dade2" stroke="black" stroke-width="1.5" points="116.9,-120.28 113.9,-124.28 92.9,-124.28 89.9,-120.28 50.45,-120.28 50.45,-75.72 116.9,-75.72 116.9,-120.28"/>
<text text-anchor="middle" x="83.67" y="-92.58" font-family="Arial" font-size="14.00">root</text>
</g>
<!-- n2 -->
<g id="node2" class="node">
<title>n2</title>
<ellipse fill="#eb984e" stroke="black" stroke-width="1.5" cx="361.73" cy="-48" rx="119.64" ry="31.5"/>
<text text-anchor="middle" x="361.73" y="-42.58" font-family="Arial" font-size="14.00">cargo (.): Rest v0.0.1</text>
</g>
<!-- n0&#45;&gt;n2 -->
<g id="edge2" class="edge">
<title>n0&#45;&gt;n2</title>
<path fill="none" stroke="blue" d="M117.18,-97.61C167.15,-97.61 255.38,-97.61 255.38,-97.61 255.38,-97.61 255.38,-72.13 255.38,-72.13"/>
<polygon fill="blue" stroke="blue" points="258.18,-72.13 255.38,-64.13 252.58,-72.13 258.18,-72.13"/>
<text text-anchor="middle" x="196.72" y="-70.5" font-family="Arial" font-size="10.00" fill="gray">Contain</text>
</g>
<!-- n1 -->
<g id="node3" class="node">
<title>n1</title>
<polygon fill="#fadbd8" stroke="black" points="410.71,-160.28 306.76,-160.28 306.76,-115.72 416.71,-115.72 416.71,-154.28 410.71,-160.28"/>
<polyline fill="none" stroke="black" points="410.71,-160.28 410.71,-154.28"/>
<polyline fill="none" stroke="black" points="416.71,-154.28 410.71,-154.28"/>
<text text-anchor="middle" x="361.73" y="-132.57" font-family="Arial" font-size="14.00">Cargo.toml</text>
</g>
<!-- n0&#45;&gt;n1 -->
<g id="edge1" class="edge">
<title>n0&#45;&gt;n1</title>
<path fill="none" stroke="blue" d="M83.38,-120.62C83.38,-130.67 83.38,-140.28 83.38,-140.28 83.38,-140.28 296.89,-140.28 296.89,-140.28"/>
<polygon fill="blue" stroke="blue" points="296.89,-143.08 304.89,-140.28 296.89,-137.48 296.89,-143.08"/>
<text text-anchor="middle" x="196.72" y="-131.5" font-family="Arial" font-size="10.00" fill="gray">Contain</text>
</g>
<!-- dir -->
<g id="node4" class="node">
<title>dir</title>
<polygon fill="#5dade2" stroke="black" points="132.27,-265.27 129.27,-269.27 108.27,-269.27 105.27,-265.27 35.07,-265.27 35.07,-220.72 132.27,-220.72 132.27,-265.27"/>
<text text-anchor="middle" x="83.67" y="-237.57" font-family="Arial" font-size="14.00">Directory</text>
</g>
<!-- file -->
<g id="node5" class="node">
<title>file</title>
<polygon fill="#fadbd8" stroke="black" points="388.21,-252.28 329.26,-252.28 329.26,-207.72 394.21,-207.72 394.21,-246.28 388.21,-252.28"/>
<polyline fill="none" stroke="black" points="388.21,-252.28 388.21,-246.28"/>
<polyline fill="none" stroke="black" points="394.21,-246.28 388.21,-246.28"/>
<text text-anchor="middle" x="361.73" y="-224.57" font-family="Arial" font-size="14.00">File</text>
</g>
<!-- dir&#45;&gt;file -->
<g id="edge3" class="edge">
<title>dir&#45;&gt;file</title>
<path fill="none" stroke="blue" d="M132.74,-236.5C132.74,-236.5 317.3,-236.5 317.3,-236.5"/>
<polygon fill="blue" stroke="blue" points="317.3,-240 327.3,-236.5 317.3,-233 317.3,-240"/>
<text text-anchor="middle" x="196.72" y="-246.5" font-family="Arial" font-size="10.00" fill="gray">Contain</text>
</g>
<!-- pkg -->
<g id="node6" class="node">
<title>pkg</title>
<ellipse fill="#eb984e" stroke="black" cx="83.67" cy="-333" rx="67.67" ry="31.5"/>
<text text-anchor="middle" x="83.67" y="-327.57" font-family="Arial" font-size="14.00">Package</text>
</g>
<!-- ext -->
<g id="node7" class="node">
<title>ext</title>
<polygon fill="#ec7063" stroke="black" points="415.87,-377.55 307.59,-377.55 269.03,-288.45 454.43,-288.45 415.87,-377.55"/>
<text text-anchor="middle" x="361.73" y="-327.57" font-family="Arial" font-size="14.00">External</text>
</g>
<!-- pkg&#45;&gt;ext -->
<g id="edge4" class="edge">
<title>pkg&#45;&gt;ext</title>
<path fill="none" stroke="red" stroke-dasharray="5,2" d="M151.69,-333C151.69,-333 276.56,-333 276.56,-333"/>
<polygon fill="red" stroke="red" points="276.56,-336.5 286.56,-333 276.56,-329.5 276.56,-336.5"/>
<text text-anchor="middle" x="196.72" y="-335.5" font-family="Arial" font-size="10.00" fill="gray">Dependency</text>
</g>
</g>
</svg>
